<svg width="25" height="25" viewBox="0 0 25 25" fill="none" xmlns="http://www.w3.org/2000/svg">
<path d="M16.2525 11.2508V11.2633M3.96872 7.97329C3.42047 7.55191 2.9994 6.98716 2.75205 6.34145C2.5047 5.69573 2.44069 4.9942 2.56712 4.31438C2.69354 3.63457 3.00546 3.00294 3.46841 2.48932C3.93136 1.9757 4.52731 1.60007 5.19039 1.40397C5.85347 1.20787 6.55786 1.19892 7.22571 1.37811C7.89356 1.5573 8.49886 1.91766 8.97471 2.41935C9.45056 2.92105 9.77843 3.54454 9.92209 4.22093C10.0657 4.89731 10.0196 5.60024 9.78872 6.25203" stroke="#B1B1B1" stroke-width="2.5" stroke-linecap="round" stroke-linejoin="round"/>
<path d="M17.5025 2.50079V7.25454C19.0494 8.14978 20.2272 9.56641 20.825 11.2508H22.5012C22.8327 11.2508 23.1507 11.3825 23.3851 11.6169C23.6195 11.8513 23.7512 12.1693 23.7512 12.5008V15.0008C23.7512 15.3323 23.6195 15.6503 23.3851 15.8847C23.1507 16.1191 22.8327 16.2508 22.5012 16.2508H20.8237C20.4037 17.4383 19.69 18.5008 18.7512 19.342V21.8758C18.7512 22.3731 18.5537 22.85 18.202 23.2016C17.8504 23.5532 17.3735 23.7508 16.8762 23.7508C16.3789 23.7508 15.902 23.5532 15.5504 23.2016C15.1988 22.85 15.0012 22.3731 15.0012 21.8758V21.147C14.5882 21.2165 14.17 21.2512 13.7512 21.2508H8.75121C8.33238 21.2512 7.91425 21.2165 7.50121 21.147V21.8758C7.50121 22.3731 7.30367 22.85 6.95203 23.2016C6.6004 23.5532 6.12349 23.7508 5.62621 23.7508C5.12893 23.7508 4.65201 23.5532 4.30038 23.2016C3.94875 22.85 3.75121 22.3731 3.75121 21.8758V19.342C2.61866 18.3295 1.8203 16.9969 1.46181 15.5206C1.10332 14.0443 1.2016 12.494 1.74364 11.0748C2.28567 9.65563 3.24591 8.43451 4.49725 7.57308C5.74859 6.71166 7.23203 6.25055 8.75121 6.25079H11.8762L17.5025 2.50079Z" stroke="#B1B1B1" stroke-width="2.5" stroke-linecap="round" stroke-linejoin="round"/>
</svg>
