<svg width="80" height="80" viewBox="0 0 80 80" fill="none" xmlns="http://www.w3.org/2000/svg">
<path d="M73.5526 38.0263C73.5526 30.9999 71.469 24.1312 67.5654 18.289C63.6617 12.4467 58.1132 7.8932 51.6217 5.20429C45.1301 2.51539 37.9869 1.81185 31.0955 3.18264C24.2041 4.55343 17.8739 7.93699 12.9054 12.9054C7.93699 17.8739 4.55343 24.2041 3.18264 31.0955C1.81185 37.9869 2.51539 45.1301 5.20429 51.6217C7.8932 58.1132 12.4467 63.6617 18.289 67.5654C24.1312 71.469 30.9999 73.5526 38.0263 73.5526M26.1842 30.1316H26.2237M49.8684 30.1316H49.9079M28.1579 49.8684C30.7553 52.5211 34.3158 53.8158 38.0263 53.8158M70.3947 70.3947L77.5 77.5M49.8684 61.7105C49.8684 64.8512 51.1161 67.8633 53.3369 70.0842C55.5577 72.305 58.5698 73.5526 61.7105 73.5526C64.8513 73.5526 67.8633 72.305 70.0842 70.0842C72.305 67.8633 73.5526 64.8512 73.5526 61.7105C73.5526 58.5698 72.305 55.5577 70.0842 53.3369C67.8633 51.1161 64.8513 49.8684 61.7105 49.8684C58.5698 49.8684 55.5577 51.1161 53.3369 53.3369C51.1161 55.5577 49.8684 58.5698 49.8684 61.7105Z" stroke="#B1B1B1" stroke-width="5" stroke-linecap="round" stroke-linejoin="round"/>
</svg>
