<svg width="30" height="30" viewBox="0 0 30 30" fill="none" xmlns="http://www.w3.org/2000/svg">
<path d="M24.8438 7.83748C25.2729 8.0823 25.6293 8.4368 25.8764 8.86467C26.1235 9.29253 26.2524 9.77839 26.25 10.2725V19.3775C26.25 20.3887 25.6962 21.3212 24.8025 21.8125L16.365 27.15C15.9467 27.3795 15.4772 27.4999 15 27.4999C14.5228 27.4999 14.0533 27.3795 13.635 27.15L5.1975 21.8125C4.76064 21.573 4.39595 21.2208 4.14138 20.7926C3.88681 20.3643 3.75166 19.8757 3.75 19.3775V10.2712C3.75 9.25998 4.30375 8.32873 5.1975 7.83748L13.635 2.86248C14.0657 2.62502 14.5495 2.50049 15.0412 2.50049C15.533 2.50049 16.0168 2.62502 16.4475 2.86248L24.885 7.83748H24.8438Z" stroke="#B1B1B1" stroke-width="2.5" stroke-linecap="round" stroke-linejoin="round"/>
<path d="M11.25 15C11.25 15.9946 11.6451 16.9484 12.3483 17.6517C13.0516 18.3549 14.0054 18.75 15 18.75C15.9946 18.75 16.9484 18.3549 17.6517 17.6517C18.3549 16.9484 18.75 15.9946 18.75 15C18.75 14.0054 18.3549 13.0516 17.6517 12.3483C16.9484 11.6451 15.9946 11.25 15 11.25C14.0054 11.25 13.0516 11.6451 12.3483 12.3483C11.6451 13.0516 11.25 14.0054 11.25 15Z" stroke="#B1B1B1" stroke-width="2.5" stroke-linecap="round" stroke-linejoin="round"/>
</svg>
