<svg width="30" height="30" viewBox="0 0 30 30" fill="none" xmlns="http://www.w3.org/2000/svg">
<path d="M15.0002 23.75V11.25M11.2502 3.75L15.0002 6.25L18.7502 3.75M15.0002 22.72C14.9638 23.3381 14.775 23.9375 14.4505 24.4648C14.1261 24.9922 13.6761 25.431 13.1408 25.742C12.6055 26.0531 12.0015 26.2268 11.3827 26.2476C10.7639 26.2684 10.1496 26.1357 9.59457 25.8613C9.03957 25.5868 8.56115 25.1793 8.20201 24.6749C7.84287 24.1706 7.6142 23.5852 7.5364 22.9709C7.4586 22.3567 7.53409 21.7328 7.75615 21.1548C7.9782 20.5769 8.33989 20.0629 8.80895 19.6588L8.7777 19.6875C7.52482 19.2478 6.46776 18.3793 5.79343 17.2355C5.1191 16.0917 4.87093 14.7462 5.09281 13.4371C5.31469 12.128 5.99232 10.9395 7.00588 10.0818C8.01945 9.22402 9.30366 8.7523 10.6315 8.75C12.399 8.75 13.9752 9.565 15.0065 10.8387C15.5538 10.1625 16.2506 9.62242 17.042 9.26101C17.8334 8.89959 18.6979 8.72668 19.5674 8.75587C20.4369 8.78505 21.2878 9.01554 22.0532 9.42922C22.8186 9.84289 23.4776 10.4285 23.9784 11.1399C24.4792 11.8513 24.8081 12.6693 24.9393 13.5293C25.0706 14.3894 25.0005 15.2682 24.7346 16.0966C24.4688 16.925 24.0144 17.6804 23.4072 18.3035C22.7999 18.9266 22.0565 19.4004 21.2352 19.6875C21.7055 20.1018 22.0645 20.6274 22.2793 21.2162C22.4941 21.805 22.5579 22.4383 22.4649 23.0582C22.3718 23.678 22.1249 24.2646 21.7467 24.7644C21.3684 25.2642 20.8709 25.6612 20.2997 25.9192C19.7284 26.1771 19.1016 26.2878 18.4766 26.241C17.8516 26.1942 17.2482 25.9915 16.7217 25.6514C16.1952 25.3113 15.7624 24.8447 15.4627 24.2942C15.1631 23.7436 15.0062 23.1268 15.0065 22.5L15.0002 22.72Z" stroke="#B1B1B1" stroke-width="2.5" stroke-linecap="round" stroke-linejoin="round"/>
</svg>
