<svg width="30" height="30" viewBox="0 0 30 30" fill="none" xmlns="http://www.w3.org/2000/svg">
<path d="M23.75 5C24.7446 5 25.6984 5.39509 26.4017 6.09835C27.1049 6.80161 27.5 7.75544 27.5 8.75V13.75C27.5 14.0815 27.3683 14.3995 27.1339 14.6339C26.8995 14.8683 26.5815 15 26.25 15C25.9185 15 25.6005 14.8683 25.3661 14.6339C25.1317 14.3995 25 14.0815 25 13.75V8.75C25 8.41848 24.8683 8.10054 24.6339 7.86612C24.3995 7.6317 24.0815 7.5 23.75 7.5H6.25C5.91848 7.5 5.60054 7.6317 5.36612 7.86612C5.1317 8.10054 5 8.41848 5 8.75V21.25C5 21.5815 5.1317 21.8995 5.36612 22.1339C5.60054 22.3683 5.91848 22.5 6.25 22.5H13.75C14.0815 22.5 14.3995 22.6317 14.6339 22.8661C14.8683 23.1005 15 23.4185 15 23.75C15 24.0815 14.8683 24.3995 14.6339 24.6339C14.3995 24.8683 14.0815 25 13.75 25H6.25C5.25544 25 4.30161 24.6049 3.59835 23.9017C2.89509 23.1984 2.5 22.2446 2.5 21.25V8.75C2.5 7.75544 2.89509 6.80161 3.59835 6.09835C4.30161 5.39509 5.25544 5 6.25 5H23.75Z" fill="#B1B1B1"/>
<path d="M25 16.25C25.663 16.25 26.2989 16.5134 26.7678 16.9822C27.2366 17.4511 27.5 18.087 27.5 18.75V22.5C27.5 23.163 27.2366 23.7989 26.7678 24.2678C26.2989 24.7366 25.663 25 25 25H18.75C18.087 25 17.4511 24.7366 16.9822 24.2678C16.5134 23.7989 16.25 23.163 16.25 22.5V18.75C16.25 18.087 16.5134 17.4511 16.9822 16.9822C17.4511 16.5134 18.087 16.25 18.75 16.25H25Z" fill="#B1B1B1"/>
</svg>
