<svg width="30" height="30" viewBox="0 0 30 30" fill="none" xmlns="http://www.w3.org/2000/svg">
<path d="M17.5 3.75V8.75C17.5 9.08152 17.6317 9.39946 17.8661 9.63388C18.1005 9.8683 18.4185 10 18.75 10H23.75" stroke="#B1B1B1" stroke-width="2.5" stroke-linecap="round" stroke-linejoin="round"/>
<path d="M12.5 26.25H8.75C8.08696 26.25 7.45107 25.9866 6.98223 25.5178C6.51339 25.0489 6.25 24.413 6.25 23.75V6.25C6.25 5.58696 6.51339 4.95107 6.98223 4.48223C7.45107 4.01339 8.08696 3.75 8.75 3.75H17.5L23.75 10V15" stroke="#B1B1B1" stroke-width="2.5" stroke-linecap="round" stroke-linejoin="round"/>
<path d="M17.5 26.25V21.25C17.5 20.587 17.7634 19.9511 18.2322 19.4822C18.7011 19.0134 19.337 18.75 20 18.75C20.663 18.75 21.2989 19.0134 21.7678 19.4822C22.2366 19.9511 22.5 20.587 22.5 21.25V26.25M17.5 23.75H22.5M26.25 18.75V26.25" stroke="#B1B1B1" stroke-width="2.5" stroke-linecap="round" stroke-linejoin="round"/>
</svg>
