<svg width="30" height="30" viewBox="0 0 30 30" fill="none" xmlns="http://www.w3.org/2000/svg">
<path d="M16.875 8.12501L21.875 13.125M23.7512 26.25C23.0882 26.25 22.4523 25.9866 21.9835 25.5178C21.5146 25.0489 21.2512 24.4131 21.2512 23.75C21.2512 23.087 21.5146 22.4511 21.9835 21.9822C22.4523 21.5134 23.0882 21.25 23.7512 21.25M23.7512 26.25C24.4143 26.25 25.0502 25.9866 25.519 25.5178C25.9879 25.0489 26.2512 24.4131 26.2512 23.75C26.2512 23.087 25.9879 22.4511 25.519 21.9822C25.0502 21.5134 24.4143 21.25 23.7512 21.25M23.7512 26.25V28.125M23.7512 21.25V19.375M27.54 21.5625L25.9162 22.5M21.5875 25L19.9625 25.9375M19.9625 21.5625L21.5875 22.5M25.9162 25L27.5413 25.9375M5 25H10L23.125 11.875C23.4533 11.5467 23.7137 11.157 23.8914 10.728C24.0691 10.2991 24.1605 9.8393 24.1605 9.37501C24.1605 8.91072 24.0691 8.45097 23.8914 8.02202C23.7137 7.59307 23.4533 7.20332 23.125 6.87501C22.7967 6.54671 22.4069 6.28628 21.978 6.1086C21.549 5.93093 21.0893 5.83948 20.625 5.83948C20.1607 5.83948 19.701 5.93093 19.272 6.1086C18.8431 6.28628 18.4533 6.54671 18.125 6.87501L5 20V25Z" stroke="#B1B1B1" stroke-width="2.5" stroke-linecap="round" stroke-linejoin="round"/>
</svg>
