<svg width="30" height="30" viewBox="0 0 30 30" fill="none" xmlns="http://www.w3.org/2000/svg">
<path d="M7.92893 10.1517C6.05357 9.44839 5 8.49456 5 7.5C5 6.50544 6.05357 5.55161 7.92893 4.84835C9.8043 4.14509 12.3478 3.75 15 3.75C17.6522 3.75 20.1957 4.14509 22.0711 4.84835C23.9464 5.55161 25 6.50544 25 7.5C25 8.49456 23.9464 9.44839 22.0711 10.1517C20.1957 10.8549 17.6522 11.25 15 11.25C12.3478 11.25 9.8043 10.8549 7.92893 10.1517Z" stroke="#B1B1B1" stroke-width="2.5" stroke-linecap="round" stroke-linejoin="round"/>
<path d="M5 7.5V15C5 15.9946 6.05357 16.9484 7.92893 17.6517C9.8043 18.3549 12.3478 18.75 15 18.75C17.6522 18.75 20.1957 18.3549 22.0711 17.6517C23.9464 16.9484 25 15.9946 25 15V7.5" stroke="#B1B1B1" stroke-width="2.5" stroke-linecap="round" stroke-linejoin="round"/>
<path d="M5 15V22.5C5 23.4946 6.05357 24.4484 7.92893 25.1517C9.8043 25.8549 12.3478 26.25 15 26.25C17.6522 26.25 20.1957 25.8549 22.0711 25.1517C23.9464 24.4484 25 23.4946 25 22.5V15" stroke="#B1B1B1" stroke-width="2.5" stroke-linecap="round" stroke-linejoin="round"/>
</svg>
