<svg width="30" height="30" viewBox="0 0 30 30" fill="none" xmlns="http://www.w3.org/2000/svg">
<path d="M8.75 18.75H5C4.66848 18.75 4.35054 18.6183 4.11612 18.3839C3.8817 18.1495 3.75 17.8315 3.75 17.5V7.5C3.75 7.16848 3.8817 6.85054 4.11612 6.61612C4.35054 6.3817 4.66848 6.25 5 6.25H20C20.3315 6.25 20.6495 6.3817 20.8839 6.61612C21.1183 6.85054 21.25 7.16848 21.25 7.5V11.25" stroke="#B1B1B1" stroke-width="2.5" stroke-linecap="round" stroke-linejoin="round"/>
<path d="M8.75 12.5C8.75 12.1685 8.8817 11.8505 9.11612 11.6161C9.35054 11.3817 9.66848 11.25 10 11.25H25C25.3315 11.25 25.6495 11.3817 25.8839 11.6161C26.1183 11.8505 26.25 12.1685 26.25 12.5V22.5C26.25 22.8315 26.1183 23.1495 25.8839 23.3839C25.6495 23.6183 25.3315 23.75 25 23.75H10C9.66848 23.75 9.35054 23.6183 9.11612 23.3839C8.8817 23.1495 8.75 22.8315 8.75 22.5V12.5Z" stroke="#B1B1B1" stroke-width="2.5" stroke-linecap="round" stroke-linejoin="round"/>
<path d="M15 17.5C15 18.163 15.2634 18.7989 15.7322 19.2678C16.2011 19.7366 16.837 20 17.5 20C18.163 20 18.7989 19.7366 19.2678 19.2678C19.7366 18.7989 20 18.163 20 17.5C20 16.837 19.7366 16.2011 19.2678 15.7322C18.7989 15.2634 18.163 15 17.5 15C16.837 15 16.2011 15.2634 15.7322 15.7322C15.2634 16.2011 15 16.837 15 17.5Z" stroke="#B1B1B1" stroke-width="2.5" stroke-linecap="round" stroke-linejoin="round"/>
</svg>
