<svg width="30" height="30" viewBox="0 0 30 30" fill="none" xmlns="http://www.w3.org/2000/svg">
<path d="M13.0479 2.60547C14.2816 2.01137 15.7184 2.01137 16.9521 2.60547L23.4736 5.74512C24.7074 6.33932 25.6035 7.46374 25.9082 8.79883L27.5186 15.8545C27.8233 17.1896 27.5033 18.5914 26.6494 19.6621L22.1367 25.3203C21.2829 26.3908 19.9884 27.0145 18.6191 27.0146H11.3809C10.0116 27.0145 8.71706 26.3908 7.86328 25.3203L3.35059 19.6621C2.49674 18.5914 2.17671 17.1896 2.48145 15.8545L4.0918 8.79883C4.39652 7.46374 5.29259 6.33932 6.52637 5.74512L13.0479 2.60547Z" stroke="#B1B1B1" stroke-width="3"/>
<rect x="9" y="9" width="4" height="6" rx="1" fill="#B1B1B1"/>
<rect x="17" y="9" width="4" height="6" rx="1" fill="#B1B1B1"/>
</svg>
