<svg width="30" height="30" viewBox="0 0 30 30" fill="none" xmlns="http://www.w3.org/2000/svg">
<path d="M14.375 26.25H7.5C6.83696 26.25 6.20107 25.9866 5.73223 25.5178C5.26339 25.0489 5 24.413 5 23.75V8.75C5 8.08696 5.26339 7.45107 5.73223 6.98223C6.20107 6.51339 6.83696 6.25 7.5 6.25H22.5C23.163 6.25 23.7989 6.51339 24.2678 6.98223C24.7366 7.45107 25 8.08696 25 8.75V14.375M20 3.75V8.75M10 3.75V8.75M5 13.75H25" stroke="#B1B1B1" stroke-width="2.5" stroke-linecap="round" stroke-linejoin="round"/>
<path d="M25.25 25.25L27.5 27.5M18.75 22.5C18.75 23.4946 19.1451 24.4484 19.8483 25.1517C20.5516 25.8549 21.5054 26.25 22.5 26.25C23.4946 26.25 24.4484 25.8549 25.1517 25.1517C25.8549 24.4484 26.25 23.4946 26.25 22.5C26.25 21.5054 25.8549 20.5516 25.1517 19.8483C24.4484 19.1451 23.4946 18.75 22.5 18.75C21.5054 18.75 20.5516 19.1451 19.8483 19.8483C19.1451 20.5516 18.75 21.5054 18.75 22.5Z" stroke="#B1B1B1" stroke-width="2.5" stroke-linecap="round" stroke-linejoin="round"/>
</svg>
