<svg width="30" height="30" viewBox="0 0 30 30" fill="none" xmlns="http://www.w3.org/2000/svg">
<path d="M7.5 26.25V23.75C7.5 22.4239 8.02678 21.1521 8.96447 20.2145C9.90215 19.2768 11.1739 18.75 12.5 18.75H18.75M23.125 23.125L18.75 27.5L16.875 25.625M20 23.75L21.25 25M10 8.75C10 10.0761 10.5268 11.3479 11.4645 12.2855C12.4021 13.2232 13.6739 13.75 15 13.75C16.3261 13.75 17.5979 13.2232 18.5355 12.2855C19.4732 11.3479 20 10.0761 20 8.75C20 7.42392 19.4732 6.15215 18.5355 5.21447C17.5979 4.27678 16.3261 3.75 15 3.75C13.6739 3.75 12.4021 4.27678 11.4645 5.21447C10.5268 6.15215 10 7.42392 10 8.75ZM23.1925 23.0175C22.9537 22.7869 22.7633 22.511 22.6322 22.206C22.5012 21.901 22.4323 21.573 22.4294 21.241C22.4265 20.9091 22.4897 20.5799 22.6154 20.2726C22.7411 19.9654 22.9268 19.6862 23.1615 19.4515C23.3962 19.2168 23.6754 19.0311 23.9826 18.9054C24.2899 18.7797 24.6191 18.7165 24.951 18.7194C25.283 18.7223 25.611 18.7912 25.916 18.9222C26.221 19.0533 26.4969 19.2437 26.7275 19.4825C27.1829 19.954 27.4349 20.5855 27.4292 21.241C27.4235 21.8965 27.1606 22.5235 26.697 22.987C26.2335 23.4506 25.6065 23.7135 24.951 23.7192C24.2955 23.7249 23.664 23.4729 23.1925 23.0175Z" stroke="#B1B1B1" stroke-width="2.5" stroke-linecap="round" stroke-linejoin="round"/>
</svg>
