<svg width="30" height="30" viewBox="0 0 30 30" fill="none" xmlns="http://www.w3.org/2000/svg">
<path d="M22.5 15H22.5125M7.5 15H7.5125M11.25 15C11.25 15.9946 11.6451 16.9484 12.3483 17.6517C13.0516 18.3549 14.0054 18.75 15 18.75C15.9946 18.75 16.9484 18.3549 17.6517 17.6517C18.3549 16.9484 18.75 15.9946 18.75 15C18.75 14.0054 18.3549 13.0516 17.6517 12.3483C16.9484 11.6451 15.9946 11.25 15 11.25C14.0054 11.25 13.0516 11.6451 12.3483 12.3483C11.6451 13.0516 11.25 14.0054 11.25 15ZM3.75 10C3.75 9.33696 4.01339 8.70107 4.48223 8.23223C4.95107 7.76339 5.58696 7.5 6.25 7.5H23.75C24.413 7.5 25.0489 7.76339 25.5178 8.23223C25.9866 8.70107 26.25 9.33696 26.25 10V20C26.25 20.663 25.9866 21.2989 25.5178 21.7678C25.0489 22.2366 24.413 22.5 23.75 22.5H6.25C5.58696 22.5 4.95107 22.2366 4.48223 21.7678C4.01339 21.2989 3.75 20.663 3.75 20V10Z" stroke="#B1B1B1" stroke-width="2.5" stroke-linecap="round" stroke-linejoin="round"/>
</svg>
