<svg width="10" height="18" viewBox="0 0 10 18" fill="none" xmlns="http://www.w3.org/2000/svg">
<path d="M0.365983 0.365984C0.600393 0.131645 0.918278 2.14577e-06 1.24973 2.14577e-06C1.58119 2.14577e-06 1.89907 0.131645 2.13348 0.365984L9.63348 7.86599C9.86782 8.1004 9.99947 8.41828 9.99947 8.74974C9.99947 9.08119 9.86782 9.39908 9.63348 9.63348L2.13348 17.1335C1.89773 17.3612 1.58198 17.4872 1.25423 17.4843C0.926486 17.4815 0.61297 17.35 0.38121 17.1183C0.14945 16.8865 0.0179888 16.573 0.0151408 16.2452C0.0122927 15.9175 0.138286 15.6017 0.365983 15.366L6.98223 8.74974L0.365983 2.13349C0.131644 1.89908 0 1.58119 0 1.24974C0 0.91828 0.131644 0.600394 0.365983 0.365984Z" fill="#B1B1B1"/>
</svg>
